<?xml version="1.0" encoding="utf-8"?>
<!-- Generator: Adobe Illustrator 24.3.0, SVG Export Plug-In . SVG Version: 6.00 Build 0)  -->
<svg version="1.1" id="Layer_1" xmlns="http://www.w3.org/2000/svg" xmlns:xlink="http://www.w3.org/1999/xlink" x="0px" y="0px"
	 viewBox="0 0 32 32" style="enable-background:new 0 0 32 32;" xml:space="preserve">
<style type="text/css">
	.st0{fill:url(#SVGID_1_);}
</style>
<linearGradient id="SVGID_1_" gradientUnits="userSpaceOnUse" x1="4.6852" y1="27.3132" x2="27.3132" y2="4.6852">
	<stop  offset="0" style="stop-color:#E000AD"/>
	<stop  offset="1" style="stop-color:#00CAE5"/>
</linearGradient>
<path class="st0" d="M12.7,17.9c1.8,0,3.2,1.4,3.2,3.2V22c-0.4,0-0.8-0.1-1.2-0.1c-0.1,0-0.3-0.1-0.4-0.1c-1.1-0.3-2-1-2.7-1.9
	c-0.1-0.1-0.2-0.2-0.2-0.3c-0.2-0.3-0.4-0.7-0.6-1v0c0,0,0.1-0.1,0.1-0.1c0.1,0,0.1-0.1,0.2-0.1c0.1,0,0.2-0.1,0.3-0.1
	c0.1,0,0.1-0.1,0.2-0.1c0.1,0,0.2-0.1,0.3-0.1c0.1,0,0.2,0,0.3-0.1c0.1,0,0.1,0,0.2,0c0,0,0.1,0,0.1,0
	C12.6,17.9,12.7,17.9,12.7,17.9z M16,0C7.2,0,0,7.2,0,16c0,8.8,7.2,16,16,16c0.5,0,0.9,0,1.4-0.1c-0.9-1.3-1.5-2.8-1.5-4.5v-0.8
	c-0.4,0-0.8,0-1.2-0.1c-0.1,0-0.3,0-0.4-0.1c-1.8-0.2-3.4-0.9-4.8-1.9c-0.5-0.3-1-0.7-1.4-1.1c-0.4-0.4-0.7-0.7-1-1.2
	c-0.3-0.4-0.5-0.8-0.8-1.2c-0.5-0.9-0.8-1.8-1.1-2.8c-0.2-0.7-0.2-1.3-0.3-2c0-0.1,0-0.2,0-0.2c0-0.2,0-0.3,0-0.5
	C5.4,9.9,10.2,5.4,16,5.4c6,0,10.8,4.7,10.8,10.6c0,3.6-1.9,6.8-4.8,8.7v-3.7c0-0.5-0.1-1.1-0.1-1.6c-0.1-0.6-0.3-1.2-0.5-1.8
	c0.1-0.5,0.2-1.1,0.2-1.7c0-3.3-2.5-6-5.7-6c-1.5,0-2.9,0.6-4,1.7c-0.1,0.1-0.3,0.3-0.4,0.4c-0.3,0.4-0.6,0.8-0.8,1.3
	c0.6-0.2,1.2-0.2,1.9-0.2c3.9,0,7.1,2.8,7.7,6.5c0.1,0.4,0.1,0.9,0.1,1.3v4.5v1.8c0,1.4,1,2.7,2.3,3.1c1.1-0.5,2.2-1.2,3.1-2
	c3.7-2.9,6-7.4,6-12.5C32,7.2,24.8,0,16,0z"/>
</svg>
